<svg xmlns="http://www.w3.org/2000/svg" xmlns:xlink="http://www.w3.org/1999/xlink" width="298.739" height="289.293" viewBox="0 0 298.739 289.293">
  <defs>
    <linearGradient id="linear-gradient" x1="0.502" y1="1.014" x2="0.502" y2="0.014" gradientUnits="objectBoundingBox">
      <stop offset="0" stop-color="gray" stop-opacity="0.251"/>
      <stop offset="0.54" stop-color="gray" stop-opacity="0.122"/>
      <stop offset="1" stop-color="gray" stop-opacity="0.102"/>
    </linearGradient>
    <linearGradient id="linear-gradient-2" x1="1.068" y1="0.668" x2="1.068" y2="-0.332" xlink:href="#linear-gradient"/>
    <linearGradient id="linear-gradient-3" x1="2.842" y1="0.652" x2="2.842" y2="-0.351" xlink:href="#linear-gradient"/>
    <linearGradient id="linear-gradient-4" x1="1.073" y1="0.27" x2="1.073" y2="-0.729" xlink:href="#linear-gradient"/>
    <linearGradient id="linear-gradient-5" x1="0.251" y1="0.451" x2="0.251" y2="-0.549" xlink:href="#linear-gradient"/>
    <linearGradient id="linear-gradient-6" x1="5.173" y1="0.029" x2="5.173" y2="-0.871" xlink:href="#linear-gradient"/>
    <linearGradient id="linear-gradient-7" x1="0.5" y1="1" x2="0.5" y2="0" xlink:href="#linear-gradient"/>
  </defs>
  <g id="undraw_agreement_aajr_1_" data-name="undraw_agreement_aajr (1)" transform="translate(0 -0.013)">
    <g id="Group_1" data-name="Group 1" transform="translate(25.361 0.013)" opacity="0.5">
      <rect id="Rectangle_1" data-name="Rectangle 1" width="173.012" height="239.048" transform="translate(0 71.802) rotate(-24.52)" fill="url(#linear-gradient)"/>
    </g>
    <rect id="Rectangle_2" data-name="Rectangle 2" width="168.61" height="233.765" transform="translate(28.092 72.503) rotate(-24.52)" fill="#fff"/>
    <rect id="Rectangle_3" data-name="Rectangle 3" width="83.645" height="20.261" transform="translate(64.384 49.162) rotate(-24.52)" fill="url(#linear-gradient-2)"/>
    <path id="Path_1" data-name="Path 1" d="M422.917,59.709a11.975,11.975,0,1,0,15.606,6.039A11.835,11.835,0,0,0,422.917,59.709Zm7.835,17.176a6.91,6.91,0,1,1,3.271-9.084,6.829,6.829,0,0,1-3.271,9.088Z" transform="translate(-328.703 -45.92)" fill="url(#linear-gradient-3)"/>
    <path id="Path_142" data-name="Path 142" d="M0,0H81.883V19.37H0Z" transform="translate(65.189 48.81) rotate(-24.52)" fill="#dc143c"/>
    <path id="Path_2" data-name="Path 2" d="M424.141,62.09a11.447,11.447,0,1,0,15.164,5.665A11.447,11.447,0,0,0,424.141,62.09Zm7.491,16.423a6.6,6.6,0,1,1,3.268-8.75,6.6,6.6,0,0,1-3.268,8.75Z" transform="translate(-329.562 -47.498)" fill="#dc143c"/>
    <rect id="Rectangle_5" data-name="Rectangle 5" width="36.1" height="36.1" transform="translate(51.016 103.661) rotate(-24.52)" fill="url(#linear-gradient-4)"/>
    <rect id="Rectangle_6" data-name="Rectangle 6" width="36.1" height="36.1" transform="translate(80.817 168.699) rotate(-24.52)" fill="url(#linear-gradient-5)"/>
    <rect id="Rectangle_7" data-name="Rectangle 7" width="33.457" height="33.457" transform="translate(52.765 104.314) rotate(-24.52)" fill="#69f0ae"/>
    <rect id="Rectangle_8" data-name="Rectangle 8" width="33.457" height="33.457" transform="translate(82.18 168.798) rotate(-24.52)" fill="#dc143c"/>
    <rect id="Rectangle_9" data-name="Rectangle 9" width="45.86" height="3.2" transform="translate(107.518 90.692) rotate(-24.52)" fill="#e0e0e0"/>
    <rect id="Rectangle_10" data-name="Rectangle 10" width="75.722" height="3.2" transform="translate(109.512 95.059) rotate(-24.52)" fill="#e0e0e0"/>
    <rect id="Rectangle_11" data-name="Rectangle 11" width="70.388" height="3.2" transform="translate(111.501 99.425) rotate(-24.52)" fill="#e0e0e0"/>
    <rect id="Rectangle_12" data-name="Rectangle 12" width="45.86" height="3.2" transform="translate(136.935 155.179) rotate(-24.52)" fill="#e0e0e0"/>
    <rect id="Rectangle_13" data-name="Rectangle 13" width="75.722" height="3.2" transform="translate(138.928 159.543) rotate(-24.52)" fill="#e0e0e0"/>
    <rect id="Rectangle_14" data-name="Rectangle 14" width="70.388" height="3.2" transform="translate(140.918 163.912) rotate(-24.52)" fill="#e0e0e0"/>
    <path id="Path_3" data-name="Path 3" d="M195.35,312.851l7.839,2.545,2.579-15.086,3.815,1.043L205.292,320l-11.822-5.182Z" transform="translate(-128.159 -198.924)" fill="url(#linear-gradient-6)"/>
    <path id="Path_4" data-name="Path 4" d="M198.787,315.467l6.816,2.211,2.242-13.118,3.315.908-3.73,16.217-10.279-4.5Z" transform="translate(-130.597 -201.739)" fill="#fff"/>
    <path id="Path_5" data-name="Path 5" d="M286.467,507.677l6.816,2.211,2.242-13.118,3.315.908-3.73,16.217-10.279-4.5Z" transform="translate(-188.678 -329.063)" fill="#fff"/>
    <rect id="Rectangle_15" data-name="Rectangle 15" width="106.978" height="35.658" transform="translate(131.314 224.534) rotate(-24.52)" fill="#e0e0e0"/>
    <path id="Path_6" data-name="Path 6" d="M683.273,630.035c-3.74-1.067-7.568-.864-8.76,3.413-.4,1.441-.449,3.68-1.995,4.422-2.275,1.094-5.02-1.094-6.995-1.985a7.247,7.247,0,0,0-9.587,2.961,16.735,16.735,0,0,0-1.911,5.82,12.463,12.463,0,0,1-.547,2.778c-.706,1.577-2.913,1.435-4.362,1.374a9.424,9.424,0,0,1-.965-.071,8.551,8.551,0,0,0,1.62-5.445c-.095-3.2-2.171-6.694-5.8-6.3a6.014,6.014,0,0,0-5.175,6.654,8.156,8.156,0,0,0,4.324,6.076c-1.107.49-2.289.871-3.335,1.377a13.991,13.991,0,0,0-1.421.793c-3.163-1.526-7.319-1.813-10.164-.257-1.377.753-.371,2.991,1.013,2.231,2.167-1.185,4.557-.888,6.822-.135l.189.068a6.1,6.1,0,0,0-.591.915c-1.279,2.485,0,6.414,3.112,6.684,4.388.375,4.594-5.425,2.211-7.734-.1-.1-.2-.192-.311-.284.986-.476,2.052-.834,2.994-1.236a12.451,12.451,0,0,0,2.329-1.3l.169.044c3.352.76,8.585,1,9.79-3.065,1.033-3.524,1.131-11.008,6.7-10.316,2.272.28,4.135,2.025,6.3,2.657,1.934.577,4.172.6,5.759-.824,1.31-1.175,1.6-2.91,2.005-4.53a4.553,4.553,0,0,1,1.09-2.434c1.232-1.077,3.268-.442,4.642-.051C683.924,632.763,684.8,630.467,683.273,630.035Zm-43.547,28.556c-.739.733-1.522.152-1.917-.614a2.409,2.409,0,0,1,.338-2.67,4.641,4.641,0,0,1,.321-.385c1.462.945,2.657,2.3,1.273,3.669Zm2.593-18.229a2.725,2.725,0,0,1,4.54.837,6.706,6.706,0,0,1-.763,6.38,5.146,5.146,0,0,1-.557.628,7.112,7.112,0,0,1-2.407-1.374c-1.8-1.62-2.812-4.615-.8-6.482Z" transform="translate(-468.739 -424.044)" fill="#dc143c"/>
    <path id="Path_7" data-name="Path 7" d="M391.9,148.665l-27.249,10.624a78.279,78.279,0,0,1-26.608-6.819,42.114,42.114,0,0,0-37.133.28c-26.669.638-41.346-2.778-49.178-6.012l2.066-4.24-27.621-10.769L157.12,100.78V227.628L181.287,238.4l12.963-31.1,28.468,13.165,5.465-13.888,18.692,13.871,1.273,1.07-1.752,1.82a9.135,9.135,0,0,0,0,12.561h0a8.318,8.318,0,0,0,12.085,0l-.959,1.013a9.135,9.135,0,0,0,0,12.561h0a8.318,8.318,0,0,0,12.085,0l5.536-5.756h0l-3.8,3.95a9.135,9.135,0,0,0,0,12.561h0a8.318,8.318,0,0,0,12.085,0l5.465-5.681h0l-2.3,2.39a6.38,6.38,0,0,0,0,8.777,5.81,5.81,0,0,0,8.439,0l3.646-3.788c6.262,4.574,11.329,7.913,13.81,8.777,10.34,3.585,10.34-3.6,10.34-3.6,13.81,7.177,20.717-7.177,20.717-7.177,17.264,7.177,17.264-10.769,17.264-10.769,4.314,2.991,7.427,1.62,9.6-1.013a11.7,11.7,0,0,0,1.29-12.656l16.5-15.248,7.136,14.59,28.468-13.166,12.963,28.738,19.09-8.524V116.363Z" transform="translate(-157.12 -73.813)" fill="url(#linear-gradient-7)"/>
    <path id="Path_8" data-name="Path 8" d="M577.072,359.511,547.021,386.22l-23.37-43.406,53.422-13.355Z" transform="translate(-346.878 -218.233)" fill="#be7c5e"/>
    <path id="Path_9" data-name="Path 9" d="M374.412,231.69s9.645,13.355,66.776,10.016l33.39,50.083,22.375,25.173a10.644,10.644,0,0,1,.263,13.966c-2.1,2.434-5.111,3.713-9.283.928,0,0,0,16.693-16.693,10.016,0,0-6.677,13.355-20.032,6.677,0,0,0,6.677-10.016,3.339s-63.441-46.741-63.441-46.741l-23.37-16.693Z" transform="translate(-287.79 -160.53)" fill="#feb19e"/>
    <path id="Path_10" data-name="Path 10" d="M599.46,260.814a77.7,77.7,0,0,1-28.694-6.478,41.909,41.909,0,0,0-40.05,2.589c-9.756,6.3-18.209,16.72-18.05,33.937,0,0,12.983,13.355,26.709-13.355h10.016s9.645,33.39,36.728,30.044,33.39-6.677,33.39-6.677Z" transform="translate(-392.64 -172.958)" fill="#be7c5e"/>
    <rect id="Rectangle_16" data-name="Rectangle 16" width="16.528" height="25.97" rx="8.264" transform="translate(112.779 147.399) rotate(45)" fill="#be7c5e"/>
    <rect id="Rectangle_17" data-name="Rectangle 17" width="16.528" height="25.97" rx="8.264" transform="translate(102.018 134.786) rotate(45)" fill="#be7c5e"/>
    <rect id="Rectangle_18" data-name="Rectangle 18" width="16.528" height="28.329" rx="8.264" transform="translate(127.802 155.744) rotate(45)" fill="#be7c5e"/>
    <rect id="Rectangle_19" data-name="Rectangle 19" width="11.542" height="18.887" rx="5.771" transform="translate(137.635 169.287) rotate(45)" fill="#be7c5e"/>
    <path id="Path_11" data-name="Path 11" d="M662.869,300.675l-30.048,13.355L602.77,240.576l26.712-10.016Z" transform="translate(-399.289 -152.72)" fill="#fff"/>
    <path id="Path_12" data-name="Path 12" d="M108.25,251.218,138.3,264.573l30.051-73.453L141.636,181.1Z" transform="translate(-71.707 -119.956)" fill="#fff"/>
    <path id="Path_13" data-name="Path 13" d="M9.34,92.09l66.776,30.048L32.714,222.3,9.34,212.288Z" transform="translate(-6.187 -60.994)" fill="#333"/>
    <path id="Path_14" data-name="Path 14" d="M748.676,141.54,681.9,171.591l43.406,100.163,23.37-10.016Z" transform="translate(-451.706 -93.751)" fill="#4d8af0"/>
  </g>
</svg>
