<svg xmlns="http://www.w3.org/2000/svg" width="1028" height="598.998" viewBox="0 0 1028 598.998">
  <g id="undraw_open_source_1qxw_1_" data-name="undraw_open_source_1qxw (1)" transform="translate(0)">
    <path id="Path_53" data-name="Path 53" d="M292,0c161.269,0,292,130.735,292,292s-130.735,292-292,292S0,453.273,0,292,130.735,0,292,0Z" transform="translate(40.001 0)" fill="#e6e6e6"/>
    <path id="Path_1" data-name="Path 1" d="M1114,668.5a13.687,13.687,0,0,1-.17,2.12c-7.14,43.76-234.46,78.88-513.83,78.88s-506.69-35.12-513.83-78.88A13.673,13.673,0,0,1,86,668.5c0-.2,0-.41.02-.61,0-.11.01-.21.01-.32a.49.49,0,0,0,.01-.12c.04-.45.1-.88.18-1.32,3.26-17.89,43.35-34.33,108.74-47.5,53.48-10.77,123.89-19.36,204.93-24.76,61.5-4.1,129.12-6.37,200.11-6.37,57.12,0,112.06,1.47,163.38,4.17h.02q16.11.855,31.74,1.87c71.33,4.62,134.63,11.69,185.63,20.54,31.37,5.45,58.1,11.58,79.19,18.22h.01c32.46,10.23,51.6,21.7,53.81,33.83.08.44.14.87.18,1.32a.5.5,0,0,0,.01.12c0,.11.01.21.01.32C1114,668.089,1114,668.3,1114,668.5Z" transform="translate(-86 -150.501)" fill="#3f3d56"/>
    <ellipse id="Ellipse_2" data-name="Ellipse 2" cx="165" cy="24" rx="165" ry="24" transform="translate(336 547.997)" opacity="0.1"/>
    <path id="Path_2" data-name="Path 2" d="M1059.96,632.3c-5.77,1.65-12.27,3.18-19.4,4.58-29.36,5.78-69.42,9.33-113.53,9.33-49.28,0-93.45-4.43-123.38-11.44-24.84-5.82-39.88-13.39-39.88-21.7,0-7.3,11.64-14.06,31.37-19.53,71.33,4.62,134.63,11.69,185.63,20.54C1012.14,619.529,1038.87,625.659,1059.96,632.3Z" transform="translate(-86 -150.501)" opacity="0.1"/>
    <path id="Path_3" data-name="Path 3" d="M618,621.249c0,15.13-94.92,27.4-212,27.4s-212-12.27-212-27.4a4.372,4.372,0,0,1,.96-2.62c53.48-10.77,123.89-19.36,204.93-24.76q3.045-.015,6.11-.01C523.08,593.859,618,606.119,618,621.249Z" transform="translate(-86 -150.501)" opacity="0.1"/>
    <path id="Path_47" data-name="Path 47" d="M0,0H41.685V134.584H0Z" transform="translate(416.472 334.975)" fill="#dc143c"/>
    <path id="Path_45" data-name="Path 45" d="M0,0H41.685V197.708H0Z" transform="translate(279.506 271.851)" fill="#dc143c"/>
    <path id="Path_49" data-name="Path 49" d="M0,0H41.685V197.708H0Z" transform="translate(143.73 271.851)" fill="#dc143c"/>
    <path id="Path_48" data-name="Path 48" d="M0,0H41.685V134.584H0Z" transform="translate(211.618 271.851)" fill="#dc143c"/>
    <rect id="Rectangle_5" data-name="Rectangle 5" width="41.685" height="39.303" transform="translate(347.393 271.851)" fill="#dc143c"/>
    <path id="Path_50" data-name="Path 50" d="M0,0H41.685V134.584H0Z" transform="translate(347.393 334.975)" fill="#dc143c"/>
    <path id="Path_46" data-name="Path 46" d="M0,0H109.573V39.3H0Z" transform="translate(416.472 271.851)" fill="#dc143c"/>
    <path id="Path_4" data-name="Path 4" d="M901.062,410.53q42.748,0,72.774,29.839a97.982,97.982,0,0,1,21.832,32.839,107.346,107.346,0,0,1,.1,78.409,93.533,93.533,0,0,1-21.74,32.294,104.7,104.7,0,0,1-33.841,22.561,101.426,101.426,0,0,1-39.114,7.823,99.015,99.015,0,0,1-38.662-7.734,104.845,104.845,0,0,1-55.4-55.4,101.589,101.589,0,0,1,22.558-110.98Q858.674,410.537,901.062,410.53Zm.369,18.377q-34.93,0-58.768,24.379A87.593,87.593,0,0,0,824.2,480.668a80.789,80.789,0,0,0,0,63.311,86.248,86.248,0,0,0,45.577,45.31,82.687,82.687,0,0,0,63.41-.089,88,88,0,0,0,27.741-18.374q23.831-23.287,23.828-58.4a83.659,83.659,0,0,0-6.186-32.02,81.465,81.465,0,0,0-18-26.929q-24.576-24.563-59.134-24.564ZM900.155,495.5l-13.649,7.1a14.006,14.006,0,0,0-5.365-6.368,12.087,12.087,0,0,0-5.916-1.818q-13.64,0-13.646,18.011,0,8.186,3.454,13.1t10.192,4.916q8.916,0,12.557-8.733l12.551,6.368a29.99,29.99,0,0,1-26.745,16.012q-13.644,0-22.016-8.37T843.2,512.423q0-14.557,8.46-23.105t21.38-8.552q18.926-.009,27.111,14.732Zm58.765,0-13.465,7.1a13.991,13.991,0,0,0-5.368-6.368,12.373,12.373,0,0,0-6.094-1.818q-13.644,0-13.649,18.011,0,8.186,3.458,13.1t10.192,4.916q8.907,0,12.548-8.733l12.735,6.368A31.277,31.277,0,0,1,948,539.8a29.4,29.4,0,0,1-15.464,4.276q-13.831,0-22.1-8.37-8.291-8.367-8.284-23.284,0-14.557,8.463-23.105t21.373-8.552q18.922-.009,26.929,14.732Z" transform="translate(-86 -150.501)" fill="#dc143c"/>
    <path id="Path_5" data-name="Path 5" d="M839.417,660.837c0,48.737-67.934,33.662-151.113,33.662s-150.1,15.075-150.1-33.662S606.125,601.5,689.3,601.5,839.417,612.1,839.417,660.837Z" transform="translate(-86 -150.501)" opacity="0.1"/>
    <path id="Path_6" data-name="Path 6" d="M839.417,648.837c0,48.737-67.934,33.662-151.113,33.662s-150.1,15.075-150.1-33.662S606.125,589.5,689.3,589.5,839.417,600.1,839.417,648.837Z" transform="translate(-86 -150.501)" fill="#3f3d56"/>
    <path id="Path_7" data-name="Path 7" d="M825.542,561.343l3.434,14.164a.885.885,0,0,1-.017.478l-15.576,48.673a.885.885,0,0,1-1.722-.17l-2.155-18.961a.885.885,0,0,1,.038-.374l14.3-43.876a.885.885,0,0,1,1.7.066Z" transform="translate(-86 -150.501)" fill="#2f2e41"/>
    <path id="Path_8" data-name="Path 8" d="M738.278,412.038l3.171,12.152-13.738,44.382-3.17-13.737Z" fill="#f2f2f2"/>
    <path id="Path_9" data-name="Path 9" d="M755.064,628.584c.528,1.585,54.949-.528,55.477-1.057a11.47,11.47,0,0,0,1.162-2.113c.5-1.057.951-2.113.951-2.113l-2.113-17.108-53.892-1.913s-1.347,14.5-1.622,21.134a15.851,15.851,0,0,0,.037,3.171Z" transform="translate(-86 -150.501)" fill="#2f2e41"/>
    <path id="Path_10" data-name="Path 10" d="M717.673,458.005l1.056,14.794H694.953V458.005Z" opacity="0.1"/>
    <path id="Path_11" data-name="Path 11" d="M687.028,462.76l.142-.028-.67,6.368H673.291v-6.34Z" opacity="0.1"/>
    <path id="Path_12" data-name="Path 12" d="M755.064,628.584c.528,1.585,54.949-.528,55.477-1.057a11.47,11.47,0,0,0,1.162-2.113H755.027a15.849,15.849,0,0,0,.037,3.17Z" transform="translate(-86 -150.501)" opacity="0.1"/>
    <path id="Path_13" data-name="Path 13" d="M671.055,573.107h14.794l36.456-14.266s25.889-10.567,23.776,9.51-5.811,47.023-5.811,47.023-11.624-5.284-17.964-3.7-2.113-32.23-2.113-32.23-51.779,24.833-56.534,21.663-5.812-25.361-5.812-25.361Z" transform="translate(-86 -150.501)" fill="#2f2e41"/>
    <path id="Path_14" data-name="Path 14" d="M671.055,573.107h14.794l36.456-14.266s25.889-10.567,23.776,9.51-5.811,47.023-5.811,47.023-11.624-5.284-17.964-3.7-2.113-32.23-2.113-32.23-51.779,24.833-56.534,21.663-5.812-25.361-5.812-25.361Z" transform="translate(-86 -150.501)" opacity="0.1"/>
    <path id="Path_15" data-name="Path 15" d="M694.363,526.777l17.9,25.724,41.74,34.872s38.57,8.982,33.286,15.322-37.513-6.34-37.513-6.34-48.08-34.871-49.665-37.513-19.021-27.474-19.021-27.474Z" transform="translate(-86 -150.501)" fill="#a0616a"/>
    <path id="Path_16" data-name="Path 16" d="M694.363,526.777l17.9,25.724,41.74,34.872s38.57,8.982,33.286,15.322-37.513-6.34-37.513-6.34-48.08-34.871-49.665-37.513-19.021-27.474-19.021-27.474Z" transform="translate(-86 -150.501)" opacity="0.1"/>
    <path id="Path_52" data-name="Path 52" d="M23.776,0A23.776,23.776,0,1,1,0,23.776,23.776,23.776,0,0,1,23.776,0Z" transform="translate(581.885 300.555)" fill="#a0616a"/>
    <path id="Path_17" data-name="Path 17" d="M690.076,495.967s-7.925,13.737-9.51,21.134-23.776-14.794-23.776-14.794l-2.906-7.661s20.87-9.775,19.285-17.7S690.076,495.967,690.076,495.967Z" transform="translate(-86 -150.501)" fill="#a0616a"/>
    <path id="Path_18" data-name="Path 18" d="M683.736,506.005l11.624,22.719s-2.642,11.1-6.869,12.152S666.3,527.139,666.3,527.139Z" transform="translate(-86 -150.501)" fill="#d0cde1"/>
    <path id="Path_19" data-name="Path 19" d="M694.3,537.178l21.663,28.531,51.779,38.57s37.513,7.925,29.06,13.737-32.758-5.284-32.758-5.284-52.307-28-63.4-39.627-31.7-31.173-31.7-31.173Z" transform="translate(-86 -150.501)" fill="#a0616a"/>
    <path id="Path_20" data-name="Path 20" d="M665.244,581.56l6.34,10.039,37.839-11.9a29.751,29.751,0,0,1,24.771,2.989c6.6,4.161,10.831,10.765,1.321,20.54-19.021,19.549-31.7,8.982-31.7,8.982s-63.931,30.116-74.5,15.322-11.1-22.191-11.1-22.191S658.9,579.975,665.244,581.56Z" transform="translate(-86 -150.501)" fill="#2f2e41"/>
    <path id="Path_21" data-name="Path 21" d="M744.5,616.432s16.907,11.1-3.17,16.379-34.872-2.113-34.872-2.113-17.436,0-17.436-8.982,5.812-10.039,5.812-10.039l17.964,2.642S734.458,608.506,744.5,616.432Z" transform="translate(-86 -150.501)" fill="#d0cde1"/>
    <path id="Path_22" data-name="Path 22" d="M711.166,468.851a17.729,17.729,0,0,0,4.982,1.785,4.548,4.548,0,0,0,4.6-1.969,6.181,6.181,0,0,0,.522-2.8c.064-2.9-.146-6.038-1.985-8.283-1.17-1.429-2.878-2.33-4.089-3.724a17.6,17.6,0,0,1-2.067-3.378c-2.356-4.424-5.843-8.676-10.69-9.951a23.187,23.187,0,0,0-6.24-.477l-12.206.172a21.249,21.249,0,0,0-5.872.632c-3.929,1.188-6.789,4.492-9.409,7.651a47.847,47.847,0,0,0-5.4,7.448,26.133,26.133,0,0,0-3.1,12.8,11.979,11.979,0,0,0,.439,3.388,18.8,18.8,0,0,0,1.332,2.925c2.289,4.5,3.648,10.112,1.07,14.449,4.478-1.829,8.909-4.228,11.863-8.058,1.321-1.714,2.358-3.72,4.119-4.977s4.631-1.367,5.761.479a5.163,5.163,0,0,1,.583,2.418,11.084,11.084,0,0,0,.668,4.081,3.058,3.058,0,0,0,3.322,1.9c2.3-.648,2.08-4.179,3.852-5.782,1.346-1.218,3.422-.985,5.15-1.538a7.643,7.643,0,0,0,4.387-4.321c.655-1.468.645-5.31,1.884-6.1C706.194,466.625,709.726,468.21,711.166,468.851Z" transform="translate(-86 -150.501)" fill="#2f2e41"/>
    <path id="Path_23" data-name="Path 23" d="M652,492.139a6.271,6.271,0,0,1,3.264.008c3.392.91,10.995,3.321,12.625,6.989,2.113,4.755,9.51,12.152,9.51,12.152s10.039,10.039,7.925,16.907-10.039,14.794-10.039,14.794,2.113,32.758-8.454,41.212-14.794,2.642-14.794,10.567-32.758,32.758-39.1,17.436c0,0,3.17-28.531,2.113-38.57C614.008,563.741,615.533,502.011,652,492.139Z" transform="translate(-86 -150.501)" fill="#d0cde1"/>
    <path id="Path_24" data-name="Path 24" d="M668.942,505.477s32.23,23.776,26.418,33.815c0,0-19.549,9.51-23.776,8.982s-20.606-19.021-24.833-20.606S640.411,497.552,668.942,505.477Z" transform="translate(-86 -150.501)" fill="#d0cde1"/>
    <path id="Path_25" data-name="Path 25" d="M579.811,526.783c-5.013,1.693-9.554,5.652-10.58,10.843-.476,2.406-.184,4.907-.585,7.327-.929,5.612-5.334,9.9-9.4,13.878s-8.258,8.606-8.555,14.286c-.325,6.22,4.186,12.047,3.406,18.226-.907,7.179-8.489,11.831-10.364,18.82-1.252,4.667.282,9.694,2.805,13.815,4.809,7.852,13.028,13.183,21.781,16.041s18.075,3.459,27.282,3.556c11.211.117,23.383-.845,31.806-8.244a25.481,25.481,0,0,0,8.459-16.588c.8-8.571-2.777-17.426-.31-25.673,1.553-5.19,5.447-9.93,4.866-15.316-.568-5.266-5.168-9-8.323-13.253-2.946-3.972-4.734-8.663-6.486-13.288l-5.995-15.824c-1.178-3.111-2.473-6.382-5.1-8.424-4.917-3.822-12.822-3.071-18.571-2.283C590.619,525.412,584.94,525.051,579.811,526.783Z" transform="translate(-86 -150.501)" fill="#2f2e41"/>
    <path id="Path_26" data-name="Path 26" d="M581.688,572.877s2.657,8.637-17.274,18.6,1.993,20.6,1.993,20.6l23.253,5.315s23.917-3.322,26.575-7.308,7.308-17.274,5.979-19.267a31.056,31.056,0,0,0-3.322-3.986s-15.945-2.657-15.281-9.966S581.688,572.877,581.688,572.877Z" transform="translate(-86 -150.501)" fill="#feb19e"/>
    <path id="Path_27" data-name="Path 27" d="M581.688,572.877s2.657,8.637-17.274,18.6,1.993,20.6,1.993,20.6l23.253,5.315s23.917-3.322,26.575-7.308,7.308-17.274,5.979-19.267a31.056,31.056,0,0,0-3.322-3.986s-15.945-2.657-15.281-9.966S581.688,572.877,581.688,572.877Z" transform="translate(-86 -150.501)" opacity="0.1"/>
    <path id="Path_51" data-name="Path 51" d="M21.26,0A21.26,21.26,0,1,1,0,21.26,21.26,21.26,0,0,1,21.26,0Z" transform="translate(487.383 393.476)" fill="#feb19e"/>
    <path id="Path_28" data-name="Path 28" d="M592.318,610.082s-25.6-1.872-26.089-19.539c0,0-9.122-1.057-11.78,1.6s-11.294,4.651-11.294,11.294,14.616,26.575,14.616,26.575,7.972,26.575,4.651,31.225-3.986,16.609-3.986,16.609,33.219-2.657,38.534,0,26.575,2.657,27.9,0-1.329-35.876-1.329-35.876,5.979-7.972,4.651-17.274l15.945-18.6s-5.979-17.938-15.281-17.938c0,0-12.623-3.322-12.955-1.661S622.215,606.76,592.318,610.082Z" transform="translate(-86 -150.501)" fill="#294a7a"/>
    <path id="Path_29" data-name="Path 29" d="M532.525,668.547s5.979,9.3,21.26,11.294,17.938-3.322,16.609-4.651-17.274-7.308-17.274-7.308l-9.3-7.308Z" transform="translate(-86 -150.501)" fill="#feb19e"/>
    <path id="Path_30" data-name="Path 30" d="M641.481,660.574l-17.274,9.966s-22.589-1.329-13.952,5.315,24.582,3.986,24.582,3.986l15.281-7.308Z" transform="translate(-86 -150.501)" fill="#feb19e"/>
    <path id="Path_31" data-name="Path 31" d="M555.113,677.848s-15.945,39.2,3.322,45.177,72.416,4.651,84.375-3.322,15.281-18.6,13.287-21.924-15.281-12.623-24.582-13.287S555.113,677.848,555.113,677.848Z" transform="translate(-86 -150.501)" fill="#2f2e41"/>
    <path id="Path_32" data-name="Path 32" d="M555.113,677.848s-15.945,39.2,3.322,45.177,72.416,4.651,84.375-3.322,15.281-18.6,13.287-21.924-15.281-12.623-24.582-13.287S555.113,677.848,555.113,677.848Z" transform="translate(-86 -150.501)" opacity="0.05"/>
    <path id="Path_33" data-name="Path 33" d="M630.378,680.283s56.281-20.373,55.617,4.208-35.876,31.225-35.876,31.225l-10.63,1.329-58.465,1.993s1.993-10.63-2.657-11.959c0,0,15.281-3.986,15.945-4.651s38.534-13.952,41.191-14.616,10.63-5.979,16.609-5.315c0,0,6.644-5.315,13.952-3.986l-20.6,1.329Z" transform="translate(-86 -150.501)" fill="#2f2e41"/>
    <path id="Path_34" data-name="Path 34" d="M630.378,680.283s56.281-20.373,55.617,4.208-35.876,31.225-35.876,31.225l-10.63,1.329-58.465,1.993s1.993-10.63-2.657-11.959c0,0,15.281-3.986,15.945-4.651s38.534-13.952,41.191-14.616,10.63-5.979,16.609-5.315c0,0,6.644-5.315,13.952-3.986l-20.6,1.329Z" transform="translate(-86 -150.501)" opacity="0.1"/>
    <path id="Path_35" data-name="Path 35" d="M534.434,533.081l7.1,16.19,43.184-15.281,3.322-8.636-11.295-1.994-22.706,3.987L544.187,530Z" fill="#2f2e41"/>
    <path id="Path_36" data-name="Path 36" d="M534.434,533.081l7.1,16.19,43.184-15.281,3.322-8.636-11.295-1.994-22.706,3.987L544.187,530Z" opacity="0.1"/>
    <path id="Path_37" data-name="Path 37" d="M528.538,703.094s12.623,15.945,27.239,19.931,22.589-1.329,22.589-1.329l-4.65-18.6-1.993-11.959-8.637-5.979-17.274-7.972-20.6-6.644s-8.637-1.329-8.637,0,7.972,21.26,7.972,21.26Z" transform="translate(-86 -150.501)" fill="#2f2e41"/>
    <path id="Path_38" data-name="Path 38" d="M543.819,711.731s2.657,19.267,5.979,20.6,13.287-1.329,15.945-2.657,11.69-7.459,11.69-7.459S545.812,710.4,543.819,711.731Z" transform="translate(-86 -150.501)" fill="#f2f2f2"/>
    <path id="Path_39" data-name="Path 39" d="M518.277,563.223l12.623,1.993-1.329,15.28-17.607-4.276Z" fill="#ffb9b9"/>
    <path id="Path_40" data-name="Path 40" d="M612.186,717.977s-5.916,7.042.063,11.028l3.986,3.322s13.287,2.657,14.616,3.986,6.644-1.993,6.644-1.993.664-19.931,0-21.26-8.637-2.657-9.3-1.329-8.637,3.322-13.287,1.993Z" transform="translate(-86 -150.501)" fill="#f2f2f2"/>
    <path id="Path_41" data-name="Path 41" d="M559.1,682.5s-46.506-27.239-53.814-17.274-15.28,23.917,5.979,34.547,87.7,32.554,87.7,32.554,9.966-15.281,9.966-19.267c0,0-35.212-15.945-41.191-17.274s-29.9-16.609-33.219-17.938-7.972-5.315-7.972-5.315Z" transform="translate(-86 -150.501)" fill="#2f2e41"/>
    <path id="Path_42" data-name="Path 42" d="M545.812,600.117l-2.657,1.993s-5.979,15.281-6.644,23.917-8.637,35.212-7.972,38.534,1.329,5.979,5.315,9.3c0,0,5.315-11.959,14.616-9.966l11.294-41.191Z" transform="translate(-86 -150.501)" fill="#294a7a"/>
    <path id="Path_43" data-name="Path 43" d="M638.824,600.117l5.315,5.979s3.322,7.972,3.322,9.966,6.644,31.225,7.308,32.554,3.322,17.938,0,21.924-9.3,6.644-9.3,6.644,3.986-13.952-8.637-14.616l1.329-5.315L626.2,617.391Z" transform="translate(-86 -150.501)" fill="#294a7a"/>
    <path id="Path_44" data-name="Path 44" d="M547.141,645.858v34.995a8.413,8.413,0,0,0,8.289,8.412l73.185,1.084a8.413,8.413,0,0,0,8.532-8.089l1.346-35a8.413,8.413,0,0,0-8.285-8.736l-74.531-1.08a8.413,8.413,0,0,0-8.535,8.413Z" transform="translate(-86 -150.501)" fill="#3f3d56"/>
    <ellipse id="Ellipse_5" data-name="Ellipse 5" cx="22.884" cy="12.322" rx="22.884" ry="12.322" transform="translate(487.006 389.41)" fill="#2f2e41"/>
    <circle id="Ellipse_6" data-name="Ellipse 6" cx="5.315" cy="5.315" r="5.315" transform="translate(500.671 508.412)" fill="#f2f2f2"/>
  </g>
</svg>
