<svg id="Component_1_1" data-name="Component 1 – 1" xmlns="http://www.w3.org/2000/svg" width="1950.569" height="3741.93" viewBox="0 0 1950.569 3741.93">
  <g id="overlay" transform="translate(1083)">
    <path id="Path_1" data-name="Path 1" d="M0,0S147.8,100.8,67.5,300.3,620,377.5,620,377.5L595.8,557.9l40.6,131.5,201-62.8V0Z" fill="#efeeff"/>
    <path id="Path_2" data-name="Path 2" d="M439.4,310.9c-45.1-1.6-88-16.1-129-32s-81.5-33.6-125.5-42c-28.3-5.4-60.7-6.2-83.4,9-22,14.6-29,39.7-32.9,63.1-2.8,17.6-4.5,36.1,3.3,52.6,5.5,11.4,15.2,21,21.9,32,23.3,38,6.8,85-18.5,122.2-11.8,17.5-25.5,34.1-34.7,52.7s-13.3,39.8-5.3,58.8C43.2,646,62,660.2,82.5,670c41.6,20.1,90.5,26,138.3,29.2,105.7,7.2,212,4,318,1a934.005,934.005,0,0,0,117.1-8.4c21.4-3.4,43.5-8.8,59.1-21.6a49.5,49.5,0,0,0,11.4-64.7c-22.2-34.4-83.5-43-99-80-8.6-20.3.2-43,12.6-61.9,26.6-40.5,71.2-76,73.6-122.3,1.6-31.8-19.9-63.6-53-78.6C625.8,247,577.6,249,552,275c-26.5,26.8-72.9,37.2-112.6,35.8Z" fill="#efeeff"/>
  </g>
  <path id="Path_1-2" data-name="Path 1" d="M1914.146,0s-177.98,371.707-490.212,371.707S849.1,480,773.235,602.927,574.815,793.171,414.329,904.39-5.854,1082.93-5.854,1082.93V0Z" transform="translate(5.854 2659)" fill="#efeeff"/>
  <g id="overlay2" transform="translate(0 1058.024)">
    <path id="Path_1-3" data-name="Path 1" d="M0,160.976S111.171,380.488,462.439,380.488s360,283.9,602.927,333.659,380.488-58.537,547.317,93.659,219.512,84.878,301.463,114.146,0,163.9,0,163.9H0Z" fill="#efeeff"/>
  </g>
  <rect id="Rectangle_1" data-name="Rectangle 1" width="1920" height="569" transform="translate(0 2090)" fill="#efeeff"/>
</svg>
