<svg id="Component_2_1" data-name="Component 2 – 1" xmlns="http://www.w3.org/2000/svg" width="1920.4" height="3741.93" viewBox="0 0 1920.4 3741.93">
  <g id="overlay" transform="translate(848.532)">
    <path id="Path_1" data-name="Path 1" d="M0,0S189.183,129.024,86.4,384.383,793.6,483.2,793.6,483.2L762.621,714.109l51.968,168.319,257.279-80.384V0Z" fill="#efeeff"/>
    <path id="Path_2" data-name="Path 2" d="M553.74,332.612C496.013,330.564,441.1,312,388.621,291.652s-104.32-43.008-160.639-53.76c-36.224-6.912-77.7-7.936-106.752,11.52C93.07,268.1,84.11,300.228,79.118,330.18c-3.584,22.528-5.76,46.208,4.224,67.328,7.04,14.592,19.456,26.88,28.032,40.96,29.824,48.64,8.7,108.8-23.68,156.415-15.1,22.4-32.64,43.648-44.416,67.456S26.254,713.282,36.494,737.6c10.112,23.936,34.176,42.112,60.416,54.656,53.248,25.728,115.84,33.28,177.023,37.376,135.3,9.216,271.359,5.12,407.039,1.28a1195.521,1195.521,0,0,0,149.888-10.752c27.392-4.352,55.68-11.264,75.648-27.648A63.36,63.36,0,0,0,921.1,709.7c-28.416-44.032-106.88-55.04-126.72-102.4-11.008-25.984.256-55.04,16.128-79.232,34.048-51.84,91.136-97.28,94.208-156.543,2.048-40.7-25.472-81.408-67.84-100.608-44.544-20.1-106.24-17.536-139.007,15.744-33.92,34.3-93.312,47.616-144.128,45.824Z" transform="translate(-4.31 84.339)" fill="#efeeff"/>
  </g>
  <path id="Path_1-2" data-name="Path 1" d="M1914.146,0s-177.98,371.707-490.212,371.707S849.1,480,773.235,602.927,574.815,793.171,414.329,904.39-5.854,1082.93-5.854,1082.93V0Z" transform="translate(5.854 2659)" fill="#efeeff"/>
  <g id="overlay2" transform="translate(0 1058.024)">
    <path id="Path_1-3" data-name="Path 1" d="M0,160.976S111.018,380,461.8,380,821.31,663.278,1063.9,712.927s379.966-58.408,546.566,93.453,165.082,91.69,246.921,120.893,59.952,157.233,59.952,157.233L0,1083.813Z" transform="translate(0 0)" fill="#efeeff"/>
  </g>
  <rect id="Rectangle_1" data-name="Rectangle 1" width="1920" height="569" transform="translate(0 2090)" fill="#efeeff"/>
</svg>
